<svg width="108" height="108" viewBox="0 0 108 108" fill="none" xmlns="http://www.w3.org/2000/svg">
<path d="M74.5604 45.7062C74.8078 44.2433 75.061 42.7 75.3292 41.0654L75.3304 41.0585C75.5427 39.7645 75.7644 38.4135 76 37C66 35 60 33 54 29C48 33 41.9143 34.8134 32 37C32.236 38.416 32.4581 39.7694 32.6708 41.0654C36.0627 61.7359 37.062 67.826 54 81V73C54 68.7398 58.1167 67.6928 61.6013 66.8065C64.1583 66.1562 66.375 65.5924 66.375 63.9091C64.125 64.4773 59.625 65.6136 55.875 66.75C56.7359 65.5643 59.2952 64.8734 61.9853 64.1473C65.7403 63.1337 69.75 62.0514 69.75 59.4584C66.7986 60.3969 64.2295 61.1745 61.6342 61.96L61.6327 61.9605L61.6316 61.9608C59.776 62.5225 57.9069 63.0882 55.875 63.7197C56.9506 62.4522 59.5618 61.6002 62.3768 60.6816C66.9227 59.1983 72 57.5416 72 53.6818C69.992 54.6959 67.536 55.7101 64.9986 56.7579C61.8494 58.0582 58.5747 59.4105 55.875 60.8788C56.8372 59.4904 59.1093 58.4073 61.6019 57.2192C65.9094 55.1659 70.875 52.7989 70.875 48C70.0647 48.4092 69.1378 48.8597 68.1445 49.3424C62.2424 52.2106 54 55.7579 54 59V73C54 68.7398 49.8833 67.1928 46.3987 66.3065C43.8417 65.6562 41.625 65.0924 41.625 63.4091C43.875 63.9773 48.375 65.1136 52.125 66.25C51.2641 65.0643 48.7048 64.3734 46.0147 63.6473C42.2597 62.6337 38.25 61.5514 38.25 58.9584C41.2018 59.897 43.7712 60.6747 46.3669 61.4604L46.3684 61.4608C48.224 62.0225 50.0931 62.5882 52.125 63.2197C51.0494 61.9522 48.4382 61.1002 45.6232 60.1816C41.0773 58.6983 36 57.0416 36 53.1818C38.008 54.1959 40.4639 55.2101 43.0014 56.2578C46.1505 57.5582 49.4253 58.9104 52.125 60.3788C51.1628 58.9904 48.8907 57.9073 46.3981 56.7192C42.0906 54.6659 37.125 52.2989 37.125 47.5C37.9354 47.9093 38.8625 48.3598 39.8559 48.8426C45.7579 51.7108 54 55.7579 54 59V38C59.7064 41.8043 65.4129 43.7995 74.5604 45.7062Z" fill="white"/>
</svg>
