<svg width="108" height="108" viewBox="0 0 108 108" fill="none" xmlns="http://www.w3.org/2000/svg">
<path d="M55.875 66.25C59.625 65.1136 64.125 63.9773 66.375 63.4091C66.375 67.3864 54 65.1136 54 72.5V58.9584C54 55.1705 65.25 50.3409 70.875 47.5C70.875 55.0758 58.5 56.5909 55.875 60.3788C60.75 57.7273 67.5 55.4545 72 53.1818C72 59.4318 58.6875 59.9053 55.875 63.2197C60.75 61.7045 64.6875 60.5682 69.75 58.9584C69.75 63.4091 57.9375 63.4091 55.875 66.25Z" fill="#7FB8FC"/>
<path d="M52.125 66.25C48.375 65.1136 43.875 63.9773 41.625 63.4091C41.625 67.3864 54 65.1136 54 72.5V58.9584C54 55.1705 42.75 50.3409 37.125 47.5C37.125 55.0758 49.5 56.5909 52.125 60.3788C47.25 57.7273 40.5 55.4545 36 53.1818C36 59.4318 49.3125 59.9053 52.125 63.2197C47.25 61.7045 43.3125 60.5682 38.25 58.9584C38.25 63.4091 50.0625 63.4091 52.125 66.25Z" fill="white"/>
</svg>
