<svg width="108" height="108" viewBox="0 0 108 108" fill="none" xmlns="http://www.w3.org/2000/svg">
<g clip-path="url(#clip0)">
<path d="M55.875 65.25C59.625 64.1136 64.125 62.9773 66.375 62.4091C66.375 66.3864 54 64.1136 54 71.5V57.9584C54 54.1705 65.25 49.3409 70.875 46.5C70.875 54.0758 58.5 55.5909 55.875 59.3788C60.75 56.7273 67.5 54.4545 72 52.1818C72 58.4318 58.6875 58.9053 55.875 62.2197C60.75 60.7045 64.6875 59.5682 69.75 57.9584C69.75 62.4091 57.9375 62.4091 55.875 65.25Z" fill="black"/>
<path d="M52.125 65.25C48.375 64.1136 43.875 62.9773 41.625 62.4091C41.625 66.3864 54 64.1136 54 71.5V57.9584C54 54.1705 42.75 49.3409 37.125 46.5C37.125 54.0758 49.5 55.5909 52.125 59.3788C47.25 56.7273 40.5 54.4545 36 52.1818C36 58.4318 49.3125 58.9053 52.125 62.2197C47.25 60.7045 43.3125 59.5682 38.25 57.9584C38.25 62.4091 50.0625 62.4091 52.125 65.25Z" fill="#0676F9"/>
</g>
<defs>
<clipPath id="clip0">
<rect width="108" height="108" fill="white"/>
</clipPath>
</defs>
</svg>
